<?xml version="1.0" encoding="UTF-8"?>
<svg viewBox="0 0 2481 2073" xmlns="http://www.w3.org/2000/svg">
 <defs>
  <filter id="a" x="-1240.5" y="-1036.5" width="200%" height="200%">
   <feGaussianBlur stdDeviation="7.7"/>
  </filter>
 </defs>
 <g fill-rule="evenodd">
  <path d="m730.94 1839.6c-38.766-190.3-107.12-348.67-189.9-495.44-61.407-108.87-132.54-209.36-198.36-314.94-21.972-35.243-40.934-72.476-62.047-109.05-42.216-73.137-76.444-157.94-74.269-267.93 2.125-107.47 33.208-193.68 78.03-264.17 73.719-115.94 197.2-210.99 362.88-235.97 135.47-20.424 262.48 14.082 352.54 66.748 73.596 43.038 130.6 100.53 173.92 168.28 45.22 70.716 76.36 154.26 78.97 263.23 1.3401 55.83-7.7999 107.53-20.68 150.42-13.03 43.409-33.99 79.695-52.64 118.45-36.41 75.659-82.05 144.98-127.86 214.34-136.44 206.61-264.5 417.31-320.58 706.03z" fill="#007fff" stroke-miterlimit="10" stroke-width="37"/>
  <circle cx="729.55" cy="651.05" r="183.33"/>
  <path d="m731.38 1839c131.6-120.87 211.31-235.98 269.14-350.49 42.89-84.95 70.54-169.17 106.95-254.06 12.16-28.34 28.51-56.57 42.52-85.3 28.02-57.45 72.66-118.14 169.03-178.1 94.16-58.59 193.95-93.756 291.58-114.7 160.56-34.442 344.28-37.299 502.59 15.593 129.45 43.244 204.68 113.46 233.78 178.86 23.78 53.44 21.43 108.18-1.04 163.1-23.46 57.32-69.57 116.07-161.11 177.39-46.9 31.42-98.9 56.34-146.41 74.87-48.09 18.76-96.6 30.39-145.33 44.32-95.12 27.19-192.42 47.15-289.89 67.08-290.32 59.34-577.25 124.32-871.81 261.43z" filter="url(#a)" opacity=".25"/>
 </g>
</svg>
