<svg width="1047" height="1694" viewBox="0 0 1047 1694" fill="none" xmlns="http://www.w3.org/2000/svg">
<g clip-path="url(#clip0_805_7)">
<path d="M844.841 987.149C708.78 1193.19 581.011 1403.35 524.664 1690.91C485.8 1501.64 417.654 1343.95 335.21 1197.77C296.047 1128.34 252.92 1062.3 209.747 996.191C185.219 958.632 160.677 921.051 136.839 882.812C123.215 860.961 110.758 838.359 98.2205 815.611C90.5397 801.675 82.8286 787.685 74.8003 773.777C32.6124 700.689 -1.57448 615.976 0.598137 506.107C2.72121 398.735 33.774 312.613 78.5502 242.195C152.2 126.364 275.56 31.4077 441.083 6.45147C576.427 -13.9536 703.323 20.5216 793.296 73.1367C866.819 116.132 923.766 173.566 967.047 241.254C1012.22 311.9 1043.33 395.356 1045.94 504.227C1047.28 559.996 1038.15 611.643 1025.28 654.491C1015.34 687.62 1000.77 716.581 986.127 745.709C981.604 754.704 977.073 763.714 972.668 772.868C936.275 848.492 890.654 917.786 844.841 987.149Z" fill="#A9A9AA" stroke="black"/>
<path d="M523.285 688.238C624.535 688.238 706.615 606.158 706.615 504.908C706.615 403.658 624.535 321.578 523.285 321.578C422.035 321.578 339.955 403.658 339.955 504.908C339.955 606.158 422.035 688.238 523.285 688.238Z" fill="black"/>
</g>
<defs>
<clipPath id="clip0_805_7">
<rect width="1046.57" height="1693.46" fill="white"/>
</clipPath>
</defs>
</svg>
