<svg width="1047" height="1694" viewBox="0 0 1047 1694" fill="none" xmlns="http://www.w3.org/2000/svg">
<g clip-path="url(#clip0_805_10)">
<path fill-rule="evenodd" clip-rule="evenodd" d="M524.674 1693.46C485.908 1503.16 417.554 1344.79 334.774 1198.02C273.367 1089.15 202.234 988.657 136.414 883.077C114.442 847.834 95.4802 810.601 74.3672 774.027C32.1512 700.89 -2.07677 616.087 0.0982348 506.097C2.22323 398.627 33.3063 312.417 78.1283 241.927C151.847 125.987 275.328 30.9371 441.008 5.95705C576.478 -14.4669 703.488 20.0391 793.548 72.7051C867.144 115.743 924.148 173.235 967.468 240.985C1012.69 311.701 1043.83 395.245 1046.44 504.215C1047.78 560.045 1038.64 611.745 1025.76 654.635C1012.73 698.044 991.768 734.33 973.118 773.085C936.708 848.744 891.068 918.065 845.258 987.425C708.818 1194.04 580.758 1404.74 524.678 1693.46L524.674 1693.46Z" fill="#9AC8F5"/>
<path d="M523.285 688.238C624.535 688.238 706.615 606.158 706.615 504.908C706.615 403.658 624.535 321.578 523.285 321.578C422.035 321.578 339.955 403.658 339.955 504.908C339.955 606.158 422.035 688.238 523.285 688.238Z" fill="black"/>
</g>
<defs>
<clipPath id="clip0_805_10">
<rect width="1046.57" height="1693.46" fill="white"/>
</clipPath>
</defs>
</svg>
